<?xml version="1.0"?>
<svg xmlns:xlink="http://www.w3.org/1999/xlink" xmlns="http://www.w3.org/2000/svg" viewBox="0 0 100 100">
<path stroke-width="2" stroke="#BB5511" fill="none" d="M1,6L2.000000,11.000000 L3.000000,-0.670000 L4.000000,9.000000 L5.000000,8.000000 L6.000000,8.000000 L7.000000,10.000000 L8.000000,4.130000 L9.000000,16.000000 L10.000000,-0.900000 L11.000000,17.000000 L12.000000,2.000000 L13.000000,18.000000 L14.000000,20.000000 L15.000000,15.000000 L16.000000,1.000000 L17.000000,8.000000 L18.000000,8.000000 L19.000000,0.050000 L20.000000,5.000000 L21.000000,21.000000 L22.000000,7.000000 L23.000000,30.000000 L24.000000,6.000000 L25.000000,0.040000 L26.000000,6.000000 L27.000000,3.040000 L28.000000,0.000000 L29.000000,-0.970000 L30.000000,9.030000 "/>
</svg>
